<?xml version="1.0" standalone="no"?>
<!DOCTYPE svg PUBLIC "-//W3C//DTD SVG 20010904//EN"
 "http://www.w3.org/TR/2001/REC-SVG-20010904/DTD/svg10.dtd">
<svg version="1.0" xmlns="http://www.w3.org/2000/svg"
 width="1353.000000pt" height="456.000000pt" viewBox="0 0 1353.000000 456.000000"
 preserveAspectRatio="xMidYMid meet">

<g transform="translate(0.000000,456.000000) scale(0.100000,-0.100000)"
fill="#000000" stroke="none">
<path d="M3393 2915 c-18 -8 -42 -29 -53 -47 -19 -32 -20 -49 -20 -501 l0
-468 23 3 c22 3 22 3 19 181 l-2 177 159 0 c128 0 163 3 174 15 21 21 84 25
77 5 -3 -8 -6 -91 -8 -185 -2 -107 -7 -174 -14 -183 -10 -11 -6 -13 23 -10
l34 3 5 180 c5 179 5 179 30 192 20 11 127 12 540 7 316 -4 520 -10 528 -17 9
-7 12 -57 12 -188 l0 -179 25 0 25 0 0 184 c0 181 -1 185 -24 213 l-24 28
-489 6 c-268 4 -500 7 -514 8 -24 1 -27 6 -33 50 -13 100 -75 151 -184 151
-67 0 -103 -14 -139 -52 -26 -28 -48 -108 -39 -148 l6 -30 -80 0 -80 0 0 263
c0 263 0 264 23 285 23 22 29 22 313 22 l291 0 21 -23 c21 -22 22 -32 22 -233
0 -115 4 -215 8 -222 5 -7 16 -10 25 -6 15 5 17 30 17 223 0 325 17 311 -387
311 -216 -1 -285 -4 -310 -15z"/>
<path d="M3621 2764 c-21 -15 -23 -23 -19 -75 5 -66 23 -92 73 -109 72 -24
135 35 135 124 0 54 -30 76 -105 76 -40 0 -68 -6 -84 -16z m139 -71 c0 -63
-50 -94 -92 -56 -11 10 -18 30 -18 55 l0 38 55 0 55 0 0 -37z"/>
<path d="M5917 2668 c-16 -12 -17 -43 -15 -363 l3 -350 167 -3 c167 -2 168 -2
173 20 3 13 3 32 1 43 -3 11 -5 23 -5 28 -1 4 -45 7 -100 7 -74 0 -102 4 -111
15 -9 11 -11 86 -7 309 4 254 3 295 -10 300 -26 10 -79 6 -96 -6z m65 -190
c-5 -5 -19 -5 -33 1 -22 8 -22 9 9 9 19 -1 29 -5 24 -10z m-32 -12 c0 -3 -4
-8 -10 -11 -5 -3 -10 -1 -10 4 0 6 5 11 10 11 6 0 10 -2 10 -4z m27 -28 c-17
-9 -17 -10 -1 -22 19 -15 13 -43 -11 -52 -23 -9 -33 6 -12 17 16 9 16 12 1 34
-9 14 -14 26 -10 26 3 1 10 2 15 3 5 0 13 4 17 9 4 4 10 4 13 1 3 -3 -2 -10
-12 -16z m13 -102 c0 -24 -19 -29 -38 -10 -16 17 -16 18 1 11 9 -3 17 -2 17 3
0 6 5 10 10 10 6 0 10 -6 10 -14z m-20 -46 c0 -5 -5 -10 -11 -10 -5 0 -7 5 -4
10 3 6 8 10 11 10 2 0 4 -4 4 -10z m0 -150 c0 -5 -4 -10 -10 -10 -5 0 -10 5
-10 10 0 6 5 10 10 10 6 0 10 -4 10 -10z"/>
<path d="M8595 2671 c-62 -16 -96 -42 -116 -86 -17 -38 -20 -71 -22 -272 -2
-213 -1 -231 19 -273 28 -60 37 -66 129 -86 67 -14 88 -14 130 -4 51 13 80 31
97 63 16 30 28 243 16 278 l-10 30 -82 -3 -81 -3 -3 -47 c-3 -48 -3 -48 28
-48 l31 0 -3 -87 -3 -88 -57 0 c-32 0 -63 6 -70 13 -8 8 -13 78 -16 237 -5
264 -2 275 72 275 53 0 65 -13 74 -77 l7 -48 59 -3 58 -3 -4 64 c-4 69 -32
119 -83 153 -28 18 -126 27 -170 15z m-75 -105 c0 -3 -4 -8 -10 -11 -5 -3 -10
-1 -10 4 0 6 5 11 10 11 6 0 10 -2 10 -4z m0 -44 c0 -10 6 -24 13 -31 10 -11
10 -13 0 -7 -7 4 -13 2 -13 -3 0 -6 -7 -11 -15 -11 -8 0 -15 5 -15 10 0 6 5
10 10 10 7 0 7 6 0 19 -13 26 -13 31 5 31 8 0 15 -8 15 -18z m30 -12 c0 -5 -2
-10 -4 -10 -3 0 -8 5 -11 10 -3 6 -1 10 4 10 6 0 11 -4 11 -10z m-40 -80 c0
-5 -2 -10 -4 -10 -3 0 -8 5 -11 10 -3 6 -1 10 4 10 6 0 11 -4 11 -10z m195
-440 c-3 -5 -16 -10 -28 -9 -21 0 -21 1 -2 9 28 12 37 12 30 0z"/>
<path d="M5175 2648 c-2 -13 -4 -174 -2 -358 l2 -335 178 -1 c197 -1 200 0
195 63 l-3 38 -115 0 -115 0 -3 83 -3 82 96 0 c105 0 103 -2 89 69 l-6 31 -94
0 -94 0 -1 108 c-1 112 0 134 8 142 2 3 56 4 119 4 l114 -1 0 48 0 49 -180 0
c-178 0 -180 0 -185 -22z m330 -48 c3 -5 1 -10 -4 -10 -6 0 -11 5 -11 10 0 6
2 10 4 10 3 0 8 -4 11 -10z m-264 -213 c-1 -12 -15 -9 -19 4 -3 6 1 10 8 8 6
-3 11 -8 11 -12z m-21 -135 c0 -7 -4 -10 -10 -7 -5 3 -10 16 -10 28 0 18 2 19
10 7 5 -8 10 -21 10 -28z m61 18 c5 0 0 -9 -11 -20 -11 -11 -23 -20 -27 -20
-6 0 -8 23 -4 46 1 3 8 3 17 0 9 -3 20 -6 25 -6z m-31 -120 c0 -5 -4 -10 -10
-10 -5 0 -10 5 -10 10 0 6 5 10 10 10 6 0 10 -4 10 -10z m-10 -40 c0 -5 -4
-10 -10 -10 -5 0 -10 5 -10 10 0 6 5 10 10 10 6 0 10 -4 10 -10z"/>
<path d="M6327 2663 c-4 -3 -7 -163 -7 -354 0 -323 1 -348 18 -353 13 -3 197
-2 325 3 15 1 18 8 15 49 l-3 47 -112 -3 -113 -4 0 91 0 91 89 0 c50 0 92 4
95 9 3 5 3 30 0 55 l-7 46 -93 0 -94 0 0 104 c0 118 7 132 65 123 20 -3 67 -3
105 0 l70 6 0 42 c0 30 -5 45 -16 49 -21 8 -329 8 -337 -1z m53 -73 c-24 -15
-36 -11 -14 4 10 8 21 12 24 10 2 -3 -2 -9 -10 -14z m-24 -47 c-10 -10 -19 5
-10 18 6 11 8 11 12 0 2 -7 1 -15 -2 -18z m44 -3 c13 -8 13 -10 -2 -10 -9 0
-20 5 -23 10 -8 13 5 13 25 0z m-33 -26 c-3 -3 -12 -4 -19 -1 -8 3 -5 6 6 6
11 1 17 -2 13 -5z m27 -18 c-5 -14 -34 -31 -34 -20 0 8 24 33 32 34 4 0 5 -6
2 -14z m-19 -96 c3 -5 1 -10 -4 -10 -6 0 -11 5 -11 10 0 6 2 10 4 10 3 0 8 -4
11 -10z"/>
<path d="M6875 2646 c-17 -17 -25 -40 -30 -82 -11 -93 -34 -223 -55 -299 -37
-137 -60 -245 -60 -280 l0 -36 57 3 58 3 9 55 c4 30 13 58 20 62 6 4 44 8 84
8 69 0 73 -1 82 -26 6 -14 10 -38 10 -53 0 -15 5 -32 12 -39 13 -13 124 -17
131 -4 7 12 -34 213 -108 527 -7 33 -17 85 -21 115 -4 30 -12 58 -18 62 -6 4
-42 8 -79 8 -58 0 -71 -3 -92 -24z m39 -71 c-7 -17 -20 -20 -28 -6 -7 10 3 21
20 21 8 0 11 -6 8 -15z m59 -87 c3 -24 17 -103 30 -175 l24 -133 -74 0 c-42 0
-72 4 -69 9 4 5 10 47 15 93 9 75 34 204 46 236 9 25 23 11 28 -30z m94 -120
c13 -17 15 -78 2 -78 -5 0 -9 3 -9 8 0 4 -4 24 -9 45 -9 37 -2 48 16 25z
m-207 -209 c0 -10 -4 -19 -9 -19 -10 0 -21 36 -14 44 10 10 23 -5 23 -25z
m-36 -33 c-3 -9 -11 -16 -16 -16 -6 0 -7 7 -4 16 3 9 6 23 6 32 1 16 1 16 10
0 6 -9 7 -23 4 -32z m96 14 c13 -8 12 -10 -5 -11 -28 -3 -38 -5 -58 -14 -10
-4 -21 -4 -24 -1 -4 4 3 9 15 13 12 3 22 9 22 14 0 12 31 11 50 -1z"/>
<path d="M7530 2664 c-17 -5 -29 -57 -60 -266 -20 -131 -47 -264 -59 -286 -6
-11 -34 126 -84 413 l-22 130 -59 3 c-32 2 -62 -1 -67 -5 -4 -4 10 -93 32
-198 21 -104 46 -233 54 -285 27 -163 37 -201 57 -211 19 -10 137 -2 158 11
13 8 94 326 105 410 4 25 16 96 27 157 12 62 19 115 17 118 -7 7 -83 14 -99 9z
m-270 -108 c0 -3 -4 -8 -10 -11 -5 -3 -10 -1 -10 4 0 6 5 11 10 11 6 0 10 -2
10 -4z m304 -103 c-10 -8 -13 -13 -5 -13 7 0 9 -5 5 -11 -4 -8 -9 -7 -15 2 -4
8 -4 18 1 23 4 4 6 16 2 25 -5 14 -4 14 12 2 17 -14 17 -15 0 -28z m-24 23 c0
-3 -4 -8 -10 -11 -5 -3 -10 -1 -10 4 0 6 5 11 10 11 6 0 10 -2 10 -4z m-1 -55
c24 -21 21 -41 -7 -41 -15 0 -15 2 -2 10 13 9 13 12 -2 21 -10 5 -18 14 -18
19 0 14 4 13 29 -9z m1 -61 c0 -5 -7 -10 -16 -10 -8 0 -12 5 -9 10 3 6 10 10
16 10 5 0 9 -4 9 -10z m-13 -36 c-3 -3 -12 -4 -19 -1 -8 3 -5 6 6 6 11 1 17
-2 13 -5z m-157 -204 c0 -5 -4 -10 -10 -10 -5 0 -10 5 -10 10 0 6 5 10 10 10
6 0 10 -4 10 -10z m20 -66 c0 -14 -12 -19 -23 -8 -9 9 4 35 14 28 5 -3 9 -12
9 -20z m61 -18 c-10 -11 -8 -15 6 -19 12 -3 13 -5 3 -6 -8 0 -22 4 -30 9 -13
9 -13 11 0 20 22 14 34 12 21 -4z"/>
<path d="M7700 2311 l0 -360 44 -6 c88 -14 81 -46 81 360 l0 360 -62 3 -63 3
0 -360z m70 120 c0 -11 -31 -24 -39 -16 -3 3 1 10 9 15 19 12 30 12 30 1z m20
-31 c0 -5 -10 -10 -22 -10 -19 0 -20 2 -8 10 19 13 30 13 30 0z m-30 -36 c0
27 23 13 27 -16 2 -14 -3 -31 -12 -38 -12 -10 -13 -16 -4 -26 15 -18 -11 -20
-29 -2 -16 16 -15 28 2 28 8 0 17 7 20 16 3 9 2 12 -5 9 -12 -8 -40 26 -32 39
4 5 12 1 20 -9 12 -18 13 -18 13 -1z m35 -114 c3 -5 1 -10 -4 -10 -6 0 -11 5
-11 10 0 6 2 10 4 10 3 0 8 -4 11 -10z"/>
<path d="M7949 2654 c-10 -13 -13 -85 -12 -351 1 -184 5 -338 8 -341 3 -3 27
-6 53 -6 l47 -1 6 70 c3 39 4 152 1 253 -4 188 5 229 28 130 7 -29 20 -73 30
-98 15 -37 41 -121 106 -337 2 -9 26 -13 74 -13 l70 0 0 356 0 355 -52 -3 -53
-3 -3 -217 c-1 -120 -6 -218 -11 -218 -4 0 -20 39 -34 88 -14 48 -39 132 -55
188 -31 105 -47 144 -66 156 -22 15 -123 9 -137 -8z m376 -43 c19 -8 18 -9 -8
-22 -22 -10 -30 -10 -40 0 -9 9 -9 14 3 21 17 11 19 11 45 1z m15 -40 c0 -12
-20 -25 -27 -18 -7 7 6 27 18 27 5 0 9 -4 9 -9z m-40 -35 c0 -3 -4 -8 -10 -11
-5 -3 -10 -1 -10 4 0 6 5 11 10 11 6 0 10 -2 10 -4z m25 -46 c-3 -5 -13 -10
-21 -10 -8 0 -14 5 -14 10 0 6 9 10 21 10 11 0 17 -4 14 -10z m-10 -40 c-3 -5
-11 -10 -16 -10 -6 0 -7 5 -4 10 3 6 11 10 16 10 6 0 7 -4 4 -10z m-175 -30
c0 -5 -5 -10 -11 -10 -5 0 -7 5 -4 10 3 6 8 10 11 10 2 0 4 -4 4 -10z m25 -40
c3 -5 2 -10 -4 -10 -5 0 -13 5 -16 10 -3 6 -2 10 4 10 5 0 13 -4 16 -10z m11
-66 c-4 -9 -9 -15 -11 -12 -3 3 -3 13 1 22 4 9 9 15 11 12 3 -3 3 -13 -1 -22z
m14 -34 c0 -5 -4 -10 -10 -10 -5 0 -10 5 -10 10 0 6 5 10 10 10 6 0 10 -4 10
-10z m0 -40 c0 -5 -5 -10 -11 -10 -5 0 -7 5 -4 10 3 6 8 10 11 10 2 0 4 -4 4
-10z"/>
<path d="M8290 2600 c0 -5 5 -10 10 -10 6 0 10 5 10 10 0 6 -4 10 -10 10 -5 0
-10 -4 -10 -10z"/>
<path d="M5610 2266 c0 -52 3 -54 108 -55 70 -1 73 0 83 26 6 15 8 38 4 50 -5
22 -10 23 -100 23 l-95 0 0 -44z"/>
<path d="M3920 2185 c-7 -8 -10 -54 -8 -126 l3 -114 54 -3 c62 -4 87 11 57 34
-11 8 -30 14 -43 14 -22 0 -23 2 -23 99 0 76 -3 100 -14 104 -8 3 -20 0 -26
-8z"/>
<path d="M4133 2192 l-53 -3 0 -125 0 -124 65 0 c57 0 65 2 65 19 0 13 -10 20
-31 25 -17 3 -35 3 -40 0 -5 -3 -9 9 -9 25 0 27 3 31 29 31 35 0 62 27 40 41
-8 5 -26 9 -41 9 -24 0 -28 4 -28 30 0 28 2 30 40 30 33 0 40 4 40 19 0 23
-11 27 -77 23z"/>
<path d="M4353 2192 c-13 -8 -93 -209 -93 -234 0 -27 35 -22 48 7 10 21 18 25
57 25 39 0 47 -3 55 -25 10 -27 37 -34 46 -12 6 16 -72 221 -90 236 -6 5 -17
7 -23 3z m37 -148 c0 -2 -11 -4 -25 -4 -28 0 -30 6 -14 47 l11 28 14 -34 c8
-18 14 -35 14 -37z"/>
<path d="M4471 2187 c-8 -10 -1 -42 29 -128 22 -62 40 -115 40 -117 0 -2 10
-2 23 0 19 3 28 20 59 113 44 132 44 137 16 133 -17 -2 -27 -19 -49 -83 -26
-78 -27 -79 -38 -52 -6 16 -11 30 -11 32 0 15 -43 115 -49 115 -5 0 -14 -6
-20 -13z"/>
<path d="M4711 2186 c-8 -9 -11 -52 -9 -127 l3 -114 59 -3 c68 -4 93 11 61 34
-11 9 -32 14 -47 11 -25 -3 -28 0 -28 25 0 24 4 28 28 28 36 0 56 14 49 34 -4
10 -19 16 -42 16 -32 0 -35 2 -35 30 0 28 2 30 39 30 46 0 62 17 36 37 -25 17
-99 17 -114 -1z"/>
<path d="M3461 2121 c-8 -5 -11 -16 -8 -25 5 -13 25 -16 121 -16 116 0 139 7
116 35 -10 11 -37 15 -114 15 -55 0 -107 -4 -115 -9z"/>
<path d="M3457 2014 c-4 -4 -7 -13 -7 -21 0 -11 24 -13 123 -11 100 3 122 6
122 18 0 12 -21 16 -116 18 -63 1 -118 -1 -122 -4z"/>
<path d="M3455 1910 c-4 -6 25 -10 80 -10 55 0 84 4 80 10 -3 6 -39 10 -80 10
-41 0 -77 -4 -80 -10z"/>
</g>
</svg>
